
      <svg xmlns="http://www.w3.org/2000/svg" viewBox="0 0 1200 600">
        <defs>
          <style>
            text { font-family: Arial, sans-serif; }
            .title { font-size: 24px; font-weight: bold; }
            .label { font-size: 14px; }
            .value { font-size: 12px; fill: #666666; }
            .axis { font-size: 12px; }
            .legend { font-size: 14px; }
          </style>
        </defs>

        <rect width="1200" height="600" fill="white"/>

        
            <line 
              x1="70" 
              y1="50" 
              x2="1050" 
              y2="50" 
              stroke="#e5e7eb" 
              stroke-dasharray="4"
            />
            <text 
              x="60" 
              y="50" 
              text-anchor="end" 
              class="axis" 
              dominant-baseline="middle"
            >17</text>
          
            <line 
              x1="70" 
              y1="95" 
              x2="1050" 
              y2="95" 
              stroke="#e5e7eb" 
              stroke-dasharray="4"
            />
            <text 
              x="60" 
              y="95" 
              text-anchor="end" 
              class="axis" 
              dominant-baseline="middle"
            >15</text>
          
            <line 
              x1="70" 
              y1="140" 
              x2="1050" 
              y2="140" 
              stroke="#e5e7eb" 
              stroke-dasharray="4"
            />
            <text 
              x="60" 
              y="140" 
              text-anchor="end" 
              class="axis" 
              dominant-baseline="middle"
            >14</text>
          
            <line 
              x1="70" 
              y1="185" 
              x2="1050" 
              y2="185" 
              stroke="#e5e7eb" 
              stroke-dasharray="4"
            />
            <text 
              x="60" 
              y="185" 
              text-anchor="end" 
              class="axis" 
              dominant-baseline="middle"
            >12</text>
          
            <line 
              x1="70" 
              y1="230" 
              x2="1050" 
              y2="230" 
              stroke="#e5e7eb" 
              stroke-dasharray="4"
            />
            <text 
              x="60" 
              y="230" 
              text-anchor="end" 
              class="axis" 
              dominant-baseline="middle"
            >10</text>
          
            <line 
              x1="70" 
              y1="275" 
              x2="1050" 
              y2="275" 
              stroke="#e5e7eb" 
              stroke-dasharray="4"
            />
            <text 
              x="60" 
              y="275" 
              text-anchor="end" 
              class="axis" 
              dominant-baseline="middle"
            >9</text>
          
            <line 
              x1="70" 
              y1="320" 
              x2="1050" 
              y2="320" 
              stroke="#e5e7eb" 
              stroke-dasharray="4"
            />
            <text 
              x="60" 
              y="320" 
              text-anchor="end" 
              class="axis" 
              dominant-baseline="middle"
            >7</text>
          
            <line 
              x1="70" 
              y1="365" 
              x2="1050" 
              y2="365" 
              stroke="#e5e7eb" 
              stroke-dasharray="4"
            />
            <text 
              x="60" 
              y="365" 
              text-anchor="end" 
              class="axis" 
              dominant-baseline="middle"
            >5</text>
          
            <line 
              x1="70" 
              y1="410" 
              x2="1050" 
              y2="410" 
              stroke="#e5e7eb" 
              stroke-dasharray="4"
            />
            <text 
              x="60" 
              y="410" 
              text-anchor="end" 
              class="axis" 
              dominant-baseline="middle"
            >3</text>
          
            <line 
              x1="70" 
              y1="455" 
              x2="1050" 
              y2="455" 
              stroke="#e5e7eb" 
              stroke-dasharray="4"
            />
            <text 
              x="60" 
              y="455" 
              text-anchor="end" 
              class="axis" 
              dominant-baseline="middle"
            >2</text>
          
            <line 
              x1="70" 
              y1="500" 
              x2="1050" 
              y2="500" 
              stroke="#e5e7eb" 
              stroke-dasharray="4"
            />
            <text 
              x="60" 
              y="500" 
              text-anchor="end" 
              class="axis" 
              dominant-baseline="middle"
            >0</text>
          

        <path 
          d="M70,420.5882352941177 L86.61016949152543,420.5882352941177 L103.22033898305085,420.5882352941177 L119.83050847457626,420.5882352941177 L136.4406779661017,420.5882352941177 L153.05084745762713,420.5882352941177 L169.66101694915253,420.5882352941177 L186.27118644067795,314.7058823529412 L202.88135593220338,314.7058823529412 L219.4915254237288,314.7058823529412 L236.10169491525423,314.7058823529412 L252.71186440677965,314.7058823529412 L269.32203389830505,314.7058823529412 L285.9322033898305,314.7058823529412 L302.5423728813559,288.2352941176471 L319.1525423728813,288.2352941176471 L335.76271186440675,288.2352941176471 L352.3728813559322,288.2352941176471 L368.9830508474576,288.2352941176471 L385.59322033898303,288.2352941176471 L402.20338983050846,288.2352941176471 L418.8135593220339,261.7647058823529 L435.4237288135593,261.7647058823529 L452.03389830508473,261.7647058823529 L468.6440677966101,261.7647058823529 L485.2542372881355,261.7647058823529 L501.86440677966095,261.7647058823529 L518.4745762711864,261.7647058823529 L535.0847457627118,208.82352941176475 L551.6949152542372,208.82352941176475 L568.3050847457627,208.82352941176475 L584.9152542372881,208.82352941176475 L601.5254237288135,208.82352941176475 L618.1355932203389,208.82352941176475 L634.7457627118644,208.82352941176475 L651.3559322033898,155.88235294117646 L667.9661016949152,155.88235294117646 L684.5762711864406,155.88235294117646 L701.1864406779661,155.88235294117646 L717.7966101694915,155.88235294117646 L734.4067796610169,155.88235294117646 L751.0169491525423,155.88235294117646 L767.6271186440678,102.94117647058829 L784.2372881355932,102.94117647058829 L800.8474576271186,102.94117647058829 L817.457627118644,102.94117647058829 L834.0677966101695,102.94117647058829 L850.6779661016949,102.94117647058829 L867.2881355932202,102.94117647058829 L883.8983050847456,50 L900.508474576271,50 L917.1186440677965,50 L933.7288135593219,50 L950.3389830508473,50 L966.9491525423728,50 L983.5593220338982,50 L1000.1694915254236,50 L1016.779661016949,50 L1033.3898305084745,50 L1050,50 L1050,500 L1033.3898305084745,500 L1016.779661016949,500 L1000.1694915254236,500 L983.5593220338982,500 L966.9491525423728,500 L950.3389830508473,500 L933.7288135593219,500 L917.1186440677965,500 L900.508474576271,500 L883.8983050847456,500 L867.2881355932202,500 L850.6779661016949,500 L834.0677966101695,500 L817.457627118644,500 L800.8474576271186,500 L784.2372881355932,500 L767.6271186440678,500 L751.0169491525423,500 L734.4067796610169,500 L717.7966101694915,500 L701.1864406779661,500 L684.5762711864406,500 L667.9661016949152,500 L651.3559322033898,500 L634.7457627118644,500 L618.1355932203389,500 L601.5254237288135,500 L584.9152542372881,500 L568.3050847457627,500 L551.6949152542372,500 L535.0847457627118,500 L518.4745762711864,500 L501.86440677966095,500 L485.2542372881355,500 L468.6440677966101,500 L452.03389830508473,500 L435.4237288135593,500 L418.8135593220339,500 L402.20338983050846,500 L385.59322033898303,500 L368.9830508474576,500 L352.3728813559322,500 L335.76271186440675,500 L319.1525423728813,500 L302.5423728813559,500 L285.9322033898305,500 L269.32203389830505,500 L252.71186440677965,500 L236.10169491525423,500 L219.4915254237288,500 L202.88135593220338,500 L186.27118644067795,500 L169.66101694915253,500 L153.05084745762713,500 L136.4406779661017,500 L119.83050847457626,500 L103.22033898305085,500 L86.61016949152543,500 L70,500 Z" 
          fill="#ef4444" 
          opacity="0.8"
        />
        <path 
          d="M70,420.5882352941177 L86.61016949152543,420.5882352941177 L103.22033898305085,420.5882352941177 L119.83050847457626,420.5882352941177 L136.4406779661017,420.5882352941177 L153.05084745762713,420.5882352941177 L169.66101694915253,420.5882352941177 L186.27118644067795,314.7058823529412 L202.88135593220338,314.7058823529412 L219.4915254237288,314.7058823529412 L236.10169491525423,314.7058823529412 L252.71186440677965,314.7058823529412 L269.32203389830505,314.7058823529412 L285.9322033898305,314.7058823529412 L302.5423728813559,288.2352941176471 L319.1525423728813,288.2352941176471 L335.76271186440675,288.2352941176471 L352.3728813559322,288.2352941176471 L368.9830508474576,288.2352941176471 L385.59322033898303,288.2352941176471 L402.20338983050846,288.2352941176471 L418.8135593220339,261.7647058823529 L435.4237288135593,261.7647058823529 L452.03389830508473,261.7647058823529 L468.6440677966101,261.7647058823529 L485.2542372881355,261.7647058823529 L501.86440677966095,261.7647058823529 L518.4745762711864,261.7647058823529 L535.0847457627118,208.82352941176475 L551.6949152542372,208.82352941176475 L568.3050847457627,208.82352941176475 L584.9152542372881,208.82352941176475 L601.5254237288135,208.82352941176475 L618.1355932203389,208.82352941176475 L634.7457627118644,208.82352941176475 L651.3559322033898,155.88235294117646 L667.9661016949152,155.88235294117646 L684.5762711864406,155.88235294117646 L701.1864406779661,155.88235294117646 L717.7966101694915,155.88235294117646 L734.4067796610169,155.88235294117646 L751.0169491525423,155.88235294117646 L767.6271186440678,102.94117647058829 L784.2372881355932,102.94117647058829 L800.8474576271186,102.94117647058829 L817.457627118644,102.94117647058829 L834.0677966101695,102.94117647058829 L850.6779661016949,102.94117647058829 L867.2881355932202,102.94117647058829 L883.8983050847456,50 L900.508474576271,50 L917.1186440677965,50 L933.7288135593219,50 L950.3389830508473,50 L966.9491525423728,50 L983.5593220338982,50 L1000.1694915254236,50 L1016.779661016949,50 L1033.3898305084745,50 L1050,50 L1050,500 L1033.3898305084745,500 L1016.779661016949,500 L1000.1694915254236,500 L983.5593220338982,500 L966.9491525423728,500 L950.3389830508473,500 L933.7288135593219,500 L917.1186440677965,500 L900.508474576271,500 L883.8983050847456,500 L867.2881355932202,500 L850.6779661016949,500 L834.0677966101695,500 L817.457627118644,500 L800.8474576271186,500 L784.2372881355932,500 L767.6271186440678,500 L751.0169491525423,500 L734.4067796610169,500 L717.7966101694915,500 L701.1864406779661,500 L684.5762711864406,500 L667.9661016949152,500 L651.3559322033898,500 L634.7457627118644,500 L618.1355932203389,500 L601.5254237288135,500 L584.9152542372881,500 L568.3050847457627,500 L551.6949152542372,500 L535.0847457627118,500 L518.4745762711864,500 L501.86440677966095,500 L485.2542372881355,500 L468.6440677966101,500 L452.03389830508473,500 L435.4237288135593,500 L418.8135593220339,500 L402.20338983050846,500 L385.59322033898303,500 L368.9830508474576,500 L352.3728813559322,500 L335.76271186440675,500 L319.1525423728813,500 L302.5423728813559,500 L285.9322033898305,500 L269.32203389830505,500 L252.71186440677965,500 L236.10169491525423,500 L219.4915254237288,500 L202.88135593220338,500 L186.27118644067795,500 L169.66101694915253,500 L153.05084745762713,500 L136.4406779661017,500 L119.83050847457626,500 L103.22033898305085,500 L86.61016949152543,500 L70,500 Z" 
          fill="#f59e0b" 
          opacity="0.8"
        />
        <path 
          d="M70,420.5882352941177 L86.61016949152543,420.5882352941177 L103.22033898305085,420.5882352941177 L119.83050847457626,420.5882352941177 L136.4406779661017,420.5882352941177 L153.05084745762713,420.5882352941177 L169.66101694915253,420.5882352941177 L186.27118644067795,314.7058823529412 L202.88135593220338,314.7058823529412 L219.4915254237288,314.7058823529412 L236.10169491525423,314.7058823529412 L252.71186440677965,314.7058823529412 L269.32203389830505,314.7058823529412 L285.9322033898305,314.7058823529412 L302.5423728813559,288.2352941176471 L319.1525423728813,288.2352941176471 L335.76271186440675,288.2352941176471 L352.3728813559322,288.2352941176471 L368.9830508474576,288.2352941176471 L385.59322033898303,288.2352941176471 L402.20338983050846,288.2352941176471 L418.8135593220339,261.7647058823529 L435.4237288135593,261.7647058823529 L452.03389830508473,261.7647058823529 L468.6440677966101,261.7647058823529 L485.2542372881355,261.7647058823529 L501.86440677966095,261.7647058823529 L518.4745762711864,261.7647058823529 L535.0847457627118,208.82352941176475 L551.6949152542372,208.82352941176475 L568.3050847457627,208.82352941176475 L584.9152542372881,208.82352941176475 L601.5254237288135,208.82352941176475 L618.1355932203389,208.82352941176475 L634.7457627118644,208.82352941176475 L651.3559322033898,155.88235294117646 L667.9661016949152,155.88235294117646 L684.5762711864406,155.88235294117646 L701.1864406779661,155.88235294117646 L717.7966101694915,155.88235294117646 L734.4067796610169,155.88235294117646 L751.0169491525423,155.88235294117646 L767.6271186440678,102.94117647058829 L784.2372881355932,102.94117647058829 L800.8474576271186,102.94117647058829 L817.457627118644,102.94117647058829 L834.0677966101695,102.94117647058829 L850.6779661016949,102.94117647058829 L867.2881355932202,102.94117647058829 L883.8983050847456,50 L900.508474576271,50 L917.1186440677965,50 L933.7288135593219,50 L950.3389830508473,50 L966.9491525423728,50 L983.5593220338982,50 L1000.1694915254236,50 L1016.779661016949,50 L1033.3898305084745,50 L1050,50 L1050,500 L1033.3898305084745,500 L1016.779661016949,500 L1000.1694915254236,500 L983.5593220338982,500 L966.9491525423728,500 L950.3389830508473,500 L933.7288135593219,500 L917.1186440677965,500 L900.508474576271,500 L883.8983050847456,500 L867.2881355932202,500 L850.6779661016949,500 L834.0677966101695,500 L817.457627118644,500 L800.8474576271186,500 L784.2372881355932,500 L767.6271186440678,500 L751.0169491525423,500 L734.4067796610169,500 L717.7966101694915,500 L701.1864406779661,500 L684.5762711864406,500 L667.9661016949152,500 L651.3559322033898,500 L634.7457627118644,500 L618.1355932203389,500 L601.5254237288135,500 L584.9152542372881,500 L568.3050847457627,500 L551.6949152542372,500 L535.0847457627118,500 L518.4745762711864,500 L501.86440677966095,500 L485.2542372881355,500 L468.6440677966101,500 L452.03389830508473,500 L435.4237288135593,500 L418.8135593220339,500 L402.20338983050846,500 L385.59322033898303,500 L368.9830508474576,500 L352.3728813559322,500 L335.76271186440675,500 L319.1525423728813,500 L302.5423728813559,500 L285.9322033898305,500 L269.32203389830505,500 L252.71186440677965,500 L236.10169491525423,500 L219.4915254237288,500 L202.88135593220338,500 L186.27118644067795,500 L169.66101694915253,500 L153.05084745762713,500 L136.4406779661017,500 L119.83050847457626,500 L103.22033898305085,500 L86.61016949152543,500 L70,500 Z" 
          fill="#22c55e" 
          opacity="0.8"
        />

        <line 
          x1="70" 
          y1="50" 
          x2="70" 
          y2="500" 
          stroke="black" 
          stroke-width="2"
        />
        <line 
          x1="70" 
          y1="500" 
          x2="1050" 
          y2="500" 
          stroke="black" 
          stroke-width="2"
        />

        
              <text 
                transform="rotate(-45 70 520)"
                x="70"
                y="520"
                text-anchor="end"
                class="axis"
              >qua. 01/10</text>
            
              <text 
                transform="rotate(-45 103.22033898305085 520)"
                x="103.22033898305085"
                y="520"
                text-anchor="end"
                class="axis"
              >sex. 03/10</text>
            
              <text 
                transform="rotate(-45 136.4406779661017 520)"
                x="136.4406779661017"
                y="520"
                text-anchor="end"
                class="axis"
              >dom. 05/10</text>
            
              <text 
                transform="rotate(-45 169.66101694915253 520)"
                x="169.66101694915253"
                y="520"
                text-anchor="end"
                class="axis"
              >ter. 07/10</text>
            
              <text 
                transform="rotate(-45 202.88135593220338 520)"
                x="202.88135593220338"
                y="520"
                text-anchor="end"
                class="axis"
              >qui. 09/10</text>
            
              <text 
                transform="rotate(-45 236.10169491525423 520)"
                x="236.10169491525423"
                y="520"
                text-anchor="end"
                class="axis"
              >sáb. 11/10</text>
            
              <text 
                transform="rotate(-45 269.32203389830505 520)"
                x="269.32203389830505"
                y="520"
                text-anchor="end"
                class="axis"
              >seg. 13/10</text>
            
              <text 
                transform="rotate(-45 302.5423728813559 520)"
                x="302.5423728813559"
                y="520"
                text-anchor="end"
                class="axis"
              >qua. 15/10</text>
            
              <text 
                transform="rotate(-45 335.76271186440675 520)"
                x="335.76271186440675"
                y="520"
                text-anchor="end"
                class="axis"
              >sex. 17/10</text>
            
              <text 
                transform="rotate(-45 368.9830508474576 520)"
                x="368.9830508474576"
                y="520"
                text-anchor="end"
                class="axis"
              >dom. 19/10</text>
            
              <text 
                transform="rotate(-45 402.20338983050846 520)"
                x="402.20338983050846"
                y="520"
                text-anchor="end"
                class="axis"
              >ter. 21/10</text>
            
              <text 
                transform="rotate(-45 435.4237288135593 520)"
                x="435.4237288135593"
                y="520"
                text-anchor="end"
                class="axis"
              >qui. 23/10</text>
            
              <text 
                transform="rotate(-45 468.6440677966101 520)"
                x="468.6440677966101"
                y="520"
                text-anchor="end"
                class="axis"
              >sáb. 25/10</text>
            
              <text 
                transform="rotate(-45 501.86440677966095 520)"
                x="501.86440677966095"
                y="520"
                text-anchor="end"
                class="axis"
              >seg. 27/10</text>
            
              <text 
                transform="rotate(-45 535.0847457627118 520)"
                x="535.0847457627118"
                y="520"
                text-anchor="end"
                class="axis"
              >qua. 29/10</text>
            
              <text 
                transform="rotate(-45 568.3050847457627 520)"
                x="568.3050847457627"
                y="520"
                text-anchor="end"
                class="axis"
              >sex. 31/10</text>
            
              <text 
                transform="rotate(-45 601.5254237288135 520)"
                x="601.5254237288135"
                y="520"
                text-anchor="end"
                class="axis"
              >dom. 02/11</text>
            
              <text 
                transform="rotate(-45 634.7457627118644 520)"
                x="634.7457627118644"
                y="520"
                text-anchor="end"
                class="axis"
              >ter. 04/11</text>
            
              <text 
                transform="rotate(-45 667.9661016949152 520)"
                x="667.9661016949152"
                y="520"
                text-anchor="end"
                class="axis"
              >qui. 06/11</text>
            
              <text 
                transform="rotate(-45 701.1864406779661 520)"
                x="701.1864406779661"
                y="520"
                text-anchor="end"
                class="axis"
              >sáb. 08/11</text>
            
              <text 
                transform="rotate(-45 734.4067796610169 520)"
                x="734.4067796610169"
                y="520"
                text-anchor="end"
                class="axis"
              >seg. 10/11</text>
            
              <text 
                transform="rotate(-45 767.6271186440678 520)"
                x="767.6271186440678"
                y="520"
                text-anchor="end"
                class="axis"
              >qua. 12/11</text>
            
              <text 
                transform="rotate(-45 800.8474576271186 520)"
                x="800.8474576271186"
                y="520"
                text-anchor="end"
                class="axis"
              >sex. 14/11</text>
            
              <text 
                transform="rotate(-45 834.0677966101695 520)"
                x="834.0677966101695"
                y="520"
                text-anchor="end"
                class="axis"
              >dom. 16/11</text>
            
              <text 
                transform="rotate(-45 867.2881355932202 520)"
                x="867.2881355932202"
                y="520"
                text-anchor="end"
                class="axis"
              >ter. 18/11</text>
            
              <text 
                transform="rotate(-45 900.508474576271 520)"
                x="900.508474576271"
                y="520"
                text-anchor="end"
                class="axis"
              >qui. 20/11</text>
            
              <text 
                transform="rotate(-45 933.7288135593219 520)"
                x="933.7288135593219"
                y="520"
                text-anchor="end"
                class="axis"
              >sáb. 22/11</text>
            
              <text 
                transform="rotate(-45 966.9491525423728 520)"
                x="966.9491525423728"
                y="520"
                text-anchor="end"
                class="axis"
              >seg. 24/11</text>
            
              <text 
                transform="rotate(-45 1000.1694915254236 520)"
                x="1000.1694915254236"
                y="520"
                text-anchor="end"
                class="axis"
              >qua. 26/11</text>
            
              <text 
                transform="rotate(-45 1033.3898305084745 520)"
                x="1033.3898305084745"
                y="520"
                text-anchor="end"
                class="axis"
              >sex. 28/11</text>
            

        <text 
          transform="rotate(-90 30 300)" 
          x="30" 
          y="300" 
          text-anchor="middle" 
          class="label"
        >Número de Tarefas</text>

        <text 
          x="600" 
          y="580" 
          text-anchor="middle" 
          class="label"
        >Período do Projeto</text>

        <text 
          x="600" 
          y="30" 
          text-anchor="middle" 
          class="title"
        >Cumulative Flow Diagram - Projeto Completo</text>

        <g transform="translate(1070, 50)">
          <rect width="15" height="15" fill="#ef4444" rx="2"/>
          <text x="25" y="12" class="legend">TODO</text>
          
          <rect y="25" width="15" height="15" fill="#f59e0b" rx="2"/>
          <text x="25" y="37" class="legend">DOING</text>
          
          <rect y="50" width="15" height="15" fill="#22c55e" rx="2"/>
          <text x="25" y="62" class="legend">DONE</text>
          
          <text x="0" y="90" class="value">
            Período: 2025-10-02 - 
            2025-11-30
          </text>
          <text x="0" y="110" class="value">
            Total de Tasks: 17
          </text>
          <text x="0" y="130" class="value">
            Total de Sprints: 8
          </text>
        </g>
      </svg>
    